<svg xmlns="http://www.w3.org/2000/svg" width="12" height="12" viewBox="0 0 12 12">
  <path fill="#FFFFFF" fill-rule="evenodd" d="M12,10.2894737 C12,9.82147368 11.9431579,9.73684211 11.4473684,9.73684211 L7.26315789,9.73684211 L7.26315789,5.55263158 C7.26315789,5.08463158 7.18757895,5 6.71052632,5 L5.76315789,5 C5.27389474,5 5.05263158,5.08463158 5.05263158,5.55263158 L5.05263158,9.73684211 L0.710526316,9.73684211 C0.242526316,9.73684211 0,9.81242105 0,10.2894737 L0,11.2368421 C0,11.7261053 0.242526316,11.9473684 0.710526316,11.9473684 L5.05263158,11.9473684 L5.05263158,16.2894737 C5.05263158,16.7665263 5.28378947,17 5.76315789,17 L6.71052632,17 C7.17852632,17 7.26315789,16.7852632 7.26315789,16.2894737 L7.26315789,11.9473684 L11.4473684,11.9473684 C11.9244211,11.9473684 12,11.7162105 12,11.2368421 L12,10.2894737 Z" transform="translate(0 -5)"/>
</svg>
