<svg xmlns="http://www.w3.org/2000/svg" width="20" height="16" viewBox="0 0 20 16">
  <g fill="#0FB082" fill-rule="evenodd">
    <path d="M10.1,6.5 C8.66666667,6.5 7.5,7.67082962 7.5,9.10927743 C7.5,10.5477252 8.66666667,11.7185549 10.1,11.7185549 C11.5333333,11.7185549 12.7,10.5477252 12.7,9.10927743 C12.7,7.67082962 11.5333333,6.5 10.1,6.5 L10.1,6.5 Z"/>
    <path d="M17.4,2.60927743 L14.4,2.60927743 C14.4,1.1676182 13.2365333,0 11.8,0 L8.2,0 C6.76346667,0 5.6,1.1676182 5.6,2.60927743 L2.6,2.60927743 C1.16346667,2.60927743 0,3.77689563 0,5.21855486 L0,12.8456735 C0,14.2873327 1.16346667,15.4549509 2.6,15.4549509 L17.4,15.4549509 C18.8365333,15.4549509 20,14.2873327 20,12.8456735 L20,5.21855486 C20,3.77689563 18.8365333,2.60927743 17.4,2.60927743 L17.4,2.60927743 Z M10,13.6485281 C7.46346667,13.6485281 5.4,11.5776985 5.4,9.03211418 C5.4,6.48652988 7.46346667,4.41570027 10,4.41570027 C12.5365333,4.41570027 14.6,6.48652988 14.6,9.03211418 C14.6,11.5776985 12.5365333,13.6485281 10,13.6485281 L10,13.6485281 Z"/>
  </g>
</svg>
