<svg xmlns="http://www.w3.org/2000/svg" width="11" height="11" viewBox="0 0 11 11">
  <path fill="#FFFFFF" fill-rule="evenodd" d="M26.3742063,835.01057 L26.3742063,830.69089 C26.3742063,830.139878 25.925419,829.692388 25.3718117,829.692388 L25.0129646,829.692388 C24.4663028,829.692388 24.01057,830.139433 24.01057,830.69089 L24.01057,835.01057 L19.6908905,835.01057 C19.1398776,835.01057 18.6923882,835.459357 18.6923882,836.012965 L18.6923882,836.371812 C18.6923882,836.918473 19.1394329,837.374206 19.6908905,837.374206 L24.01057,837.374206 L24.01057,841.693886 C24.01057,842.244899 24.4593573,842.692388 25.0129646,842.692388 L25.3718117,842.692388 C25.9184735,842.692388 26.3742063,842.245343 26.3742063,841.693886 L26.3742063,837.374206 L30.6938858,837.374206 C31.2448987,837.374206 31.6923882,836.925419 31.6923882,836.371812 L31.6923882,836.012965 C31.6923882,835.466303 31.2453434,835.01057 30.6938858,835.01057 L26.3742063,835.01057 Z" transform="rotate(45 1018.298 396.55)"/>
</svg>
