<svg xmlns="http://www.w3.org/2000/svg" width="21" height="19" viewBox="0 0 21 19">
  <path fill="#02263E" fill-rule="evenodd" d="M12.5833444,61.1666887 L14.4960916,61.1666887 L15.5255777,64.254836 C15.5280667,64.2632361 15.5318001,64.2716363 15.5339779,64.2803475 L17.8626886,71.2671018 L18.8165732,74.1303114 C17.9062449,74.4498286 17.2500992,75.3153561 17.2500992,76.333642 C17.2500992,77.620733 18.2963856,78.6670194 19.5834766,78.6670194 C20.8705676,78.6670194 21.9168541,77.620733 21.9168541,76.333642 C21.9168541,75.908345 21.8001852,75.5107375 21.6007592,75.1669533 L27.4830481,75.1669533 C27.2836221,75.5107375 27.1669533,75.908345 27.1669533,76.333642 C27.1669533,77.620733 28.2132397,78.6670194 29.5003307,78.6670194 C30.7874217,78.6670194 31.8337081,77.620733 31.8337081,76.333642 C31.8337081,75.046551 30.7874217,74.0002645 29.5003307,74.0002645 L20.0041068,74.0002645 L19.2263143,71.6668871 L21.3310208,71.6668871 L21.3322652,71.6668871 L21.3335097,71.6668871 L27.1657088,71.6668871 L27.1669533,71.6668871 L27.1681977,71.6668871 L30.083675,71.6668871 C30.3353687,71.6668871 30.5575062,71.5063508 30.6365299,71.2683463 L32.9699073,64.268214 C33.0296418,64.0905662 32.9991523,63.8951847 32.8899503,63.7430485 C32.7804371,63.5899789 32.6043449,63.5000661 32.4170525,63.5000661 L20.1898436,63.5000661 L20.1873547,63.5000661 L16.5040407,63.5000661 L15.4695767,60.3985409 C15.390553,60.1605364 15.1684154,60 14.9167218,60 L12.5833444,60 C12.2613383,60 12,60.2613383 12,60.5833444 C12,60.9053504 12.2613383,61.1666887 12.5833444,61.1666887 L12.5833444,61.1666887 Z M24.8335758,70.5001984 L24.8335758,68.166821 L27.0611735,68.166821 L26.6722772,70.5001984 L24.8335758,70.5001984 Z M24.8335758,67.0001323 L24.8335758,64.6667548 L27.6445178,64.6667548 L27.2556216,67.0001323 L24.8335758,67.0001323 Z M23.6668871,67.0001323 L21.2448414,67.0001323 L20.8559451,64.6667548 L23.6668871,64.6667548 L23.6668871,67.0001323 Z M23.6668871,68.166821 L23.6668871,70.5001984 L21.8281857,70.5001984 L21.4392895,68.166821 L23.6668871,68.166821 Z M20.6443856,70.5001984 L18.8374181,70.5001984 L18.0596256,68.166821 L20.2554893,68.166821 L20.6443856,70.5001984 Z M20.7501653,76.333642 C20.7501653,76.9764097 20.2262443,77.5003307 19.5834766,77.5003307 C18.9407089,77.5003307 18.4167879,76.9764097 18.4167879,76.333642 C18.4167879,75.6908743 18.9407089,75.1669533 19.5834766,75.1669533 C20.2262443,75.1669533 20.7501653,75.6908743 20.7501653,76.333642 L20.7501653,76.333642 Z M30.6670194,76.333642 C30.6670194,76.9764097 30.1430984,77.5003307 29.5003307,77.5003307 C28.857563,77.5003307 28.333642,76.9764097 28.333642,76.333642 C28.333642,75.6908743 28.857563,75.1669533 29.5003307,75.1669533 C30.1430984,75.1669533 30.6670194,75.6908743 30.6670194,76.333642 L30.6670194,76.333642 Z M29.6630449,70.5001984 L27.8560774,70.5001984 L28.2449736,68.166821 L30.4408373,68.166821 L29.6630449,70.5001984 Z M30.8297336,67.0001323 L28.4394217,67.0001323 L28.828318,64.6667548 L31.6075261,64.6667548 L30.8297336,67.0001323 Z M19.672145,64.6667548 L20.0610412,67.0001323 L17.6707294,67.0001323 L16.8929369,64.6667548 L19.672145,64.6667548 Z" transform="translate(-12 -60)"/>
</svg>
