<svg xmlns="http://www.w3.org/2000/svg" width="29" height="24" viewBox="0 0 29 24">
  <g fill="none" fill-rule="evenodd" transform="translate(1 7)">
    <path fill="#FFFFFF" d="M21.3369689 4.66450012L21.3369689 4.66450012C21.3369689 6.14701489 19.5423954 6.89049161 18.4917643 5.8413017 17.4411332 4.79211179 18.1856311 3 19.6701823 3 20.5902485 3 21.3369689 3.74569605 21.3369689 4.66450012L21.3369689 4.66450012zM15.3369689 4.66450012L15.3369689 4.66450012C15.3369689 6.14701489 13.5423954 6.89049161 12.4917643 5.8413017 11.4411332 4.79211179 12.1856311 3 13.6701823 3 14.5902485 3 15.3369689 3.74569605 15.3369689 4.66450012L15.3369689 4.66450012zM9.33696886 4.66450012L9.33696886 4.66450012C9.33696886 6.14701489 7.54239537 6.89049161 6.49176427 5.8413017 5.44113317 4.79211179 6.18563115 3 7.67018234 3 8.5902485 3 9.33696886 3.74569605 9.33696886 4.66450012L9.33696886 4.66450012z"/>
    <path stroke="#FFFFFF" stroke-width="1.4" d="M14.8599574,13.4408065 L14.8599574,13.4408065 C13.5470852,13.4385872 12.2358798,13.3215174 10.9424535,13.0918163 C10.7341052,13.0551973 10.5196453,13.1006937 10.3435215,13.2177635 C8.17114311,14.5482539 5.73819039,15.400478 3.20967524,15.7145137 C4.23641573,14.7285748 5.02869493,13.525696 5.52761969,12.1946508 C5.67763048,11.8023836 5.51484099,11.3601814 5.1437032,11.1632155 C2.79075623,9.87156345 0,7.55679862 0,3.72068068 C0,-2.98725479 8.69229169,-6 14.8599574,-6 C20.6937102,-6 26.9269362,-3.44443749 26.9269362,3.72068068 C26.9269362,10.8857989 20.6937102,13.4408065 14.8599574,13.4408065 L14.8599574,13.4408065 Z"/>
  </g>
</svg>
