<svg xmlns="http://www.w3.org/2000/svg" width="54" height="27" viewBox="0 0 54 27">
  <g fill="#02263E" fill-rule="evenodd">
    <path d="M9.26328922 16.2251898C4.4931569 16.2251898.623818526 18.8113665.623818526 22.0054658L.623818526 23.4501173C.623818526 25.0484196 1.91387524 26.3435956 3.50586011 26.3435956L15.0232136 26.3435956C16.6127032 26.3435956 17.9052552 25.0484196 17.9052552 23.4501173L17.9052552 22.0054658C17.9052552 18.8113665 14.0359168 16.2251898 9.26328922 16.2251898L9.26328922 16.2251898zM16.0337996 23.4501173L16.0337996 23.4501173C16.0337996 24.0079365 15.578828 24.4647136 15.0232136 24.4647136L3.50586011 24.4647136C2.94691871 24.4647136 2.4952741 24.0112767 2.4952741 23.4501173L2.4952741 22.0054658C2.4952741 20.1591511 5.27667297 18.1007315 9.26328922 18.1007315 13.2532325 18.1007315 16.0337996 20.1591511 16.0337996 22.0054658L16.0337996 23.4501173zM9.38638941 14.620207C11.9731569 14.620207 14.0650284 12.5158592 14.0650284 9.92300207 14.0650284 7.32930987 11.9698299 5.2257971 9.38638941 5.2257971 6.80378072 5.2257971 4.70775047 7.32930987 4.70775047 9.92300207 4.70775047 12.5158592 6.80378072 14.620207 9.38638941 14.620207L9.38638941 14.620207zM9.38638941 7.10467909C10.9359546 7.10467909 12.1935728 8.36979296 12.1935728 9.92300207 12.1935728 11.4753761 10.9334594 12.7413251 9.38638941 12.7413251 7.84015123 12.7413251 6.57920605 11.4753761 6.57920605 9.92300207 6.57920605 8.36728778 7.8368242 7.10467909 9.38638941 7.10467909L9.38638941 7.10467909zM21.3595463 26.3435956L53.3106994 26.3435956C53.6941399 26.3435956 53.9993951 26.0337888 53.9993951 25.6488268L53.9993951 1.28181504C53.9993951.896853002 53.6908129.587046239 53.3106994.587046239L21.3595463.587046239C20.9761059.587046239 20.6675236.896853002 20.6675236 1.28181504L20.6675236 25.6488268C20.6708507 26.0337888 20.9794329 26.3435956 21.3595463 26.3435956L21.3595463 26.3435956zM22.051569 1.97658385L52.6186767 1.97658385 52.6186767 23.4334161 22.051569 23.4334161 22.051569 1.97658385z"/>
    <path d="M43.6348582 6.21701173L28.2731191 6.21701173C27.8896786 6.21701173 27.5810964 6.5268185 27.5810964 6.91178054 27.5810964 7.29674258 27.8896786 7.60654934 28.2731191 7.60654934L43.6348582 7.60654934C44.0149716 7.60654934 44.3268809 7.29674258 44.3268809 6.91178054 44.3268809 6.5268185 44.0182987 6.21701173 43.6348582 6.21701173L43.6348582 6.21701173zM36.7204537 11.8478123L28.2731191 11.8478123C27.8896786 11.8478123 27.5810964 12.157619 27.5810964 12.5425811 27.5810964 12.9267081 27.8896786 13.2373499 28.2731191 13.2373499L36.7204537 13.2373499C37.1005671 13.2373499 37.4099811 12.9267081 37.4099811 12.5425811 37.4099811 12.1601242 37.1038941 11.8478123 36.7204537 11.8478123L36.7204537 11.8478123z"/>
  </g>
</svg>
