<svg xmlns="http://www.w3.org/2000/svg" width="15" height="18" viewBox="0 0 15 18">
  <path fill="#C21010" fill-rule="evenodd" d="M12.5,15.7142857 L2.5,15.7142857 L2.5,4.28571429 L1.07142857,4.28571429 L1.07142857,15.7142857 C1.07142857,16.5028571 1.71142857,17.1428571 2.5,17.1428571 L12.5,17.1428571 C13.2885714,17.1428571 13.9285714,16.5028571 13.9285714,15.7142857 L13.9285714,4.28571429 L12.5,4.28571429 L12.5,15.7142857 Z M10.7142857,2.14285714 L10.7142857,1.42857143 C10.7142857,0.64 10.0742857,0 9.28571429,0 L5.71428571,0 C4.92571429,0 4.28571429,0.64 4.28571429,1.42857143 L4.28571429,2.14285714 L0,2.14285714 L0,3.57142857 L15,3.57142857 L15,2.14285714 L10.7142857,2.14285714 Z M9.28571429,2.14285714 L5.71428571,2.14285714 L5.71428571,1.42857143 L9.28571429,1.42857143 L9.28571429,2.14285714 Z M3.92857143,5.35714286 L3.92857143,14.2857143 L5.35714286,14.2857143 L5.35714286,5.35714286 L3.92857143,5.35714286 Z M9.64285714,5.35714286 L9.64285714,14.2857143 L11.0714286,14.2857143 L11.0714286,5.35714286 L9.64285714,5.35714286 Z M6.78571429,5.35714286 L6.78571429,14.2857143 L8.21428571,14.2857143 L8.21428571,5.35714286 L6.78571429,5.35714286 Z"/>
</svg>
