<svg xmlns="http://www.w3.org/2000/svg" width="15" height="20" viewBox="0 0 15 20">
  <path fill="#FFFFFF" fill-rule="evenodd" d="M15,13.1917577 L15,28.6627445 L15,30.3284408 C15.0567923,31.0026512 15.6021889,31.5083883 16.189783,31.5182238 L24.7562209,31.5182238 C25.2232504,31.4563551 25.5195857,31.0559534 25.8270257,30.7672327 C26.9187706,29.7398948 27.9175538,28.8090085 29.0540345,27.7556539 C29.1955394,27.6217637 29.2773965,27.4294947 29.2773965,27.2350049 C29.2773965,22.5466251 29.2846938,17.8791856 29.2846938,13.1917577 C29.2846938,12.005782 28.3328633,12.005782 28.0876134,12.005782 L26.4292145,12.005782 L16.189783,12.005782 C16.189783,12.005782 15.0072933,11.8471442 15,13.1917577 Z M16.4277396,13.4335216 L27.8496568,13.4335216 L27.8496568,25.8072652 L23.3357786,25.8072652 L23.3357786,30.0904842 L16.4277396,30.0904842 L16.4277396,13.4335216 Z M18.0934359,15.5751311 L18.0934359,17.0028707 L26.1839606,17.0028707 L26.1839606,15.5751311 L18.0934359,15.5751311 Z M18.0934359,18.9065236 L18.0934359,20.3342632 L26.1839606,20.3342632 L26.1839606,18.9065236 L18.0934359,18.9065236 Z M18.0934359,22.2379161 L18.0934359,23.6656557 L23.8043945,23.6656557 L23.8043945,22.2379161 L18.0934359,22.2379161 Z M24.7635183,27.2350049 L27.5222285,27.2350049 C26.5247144,28.1608147 25.5716189,29.0507724 24.7635183,29.8077917 L24.7635183,27.2350049 Z" transform="translate(-15 -12)"/>
</svg>
