<svg xmlns="http://www.w3.org/2000/svg" width="15" height="15" viewBox="0 0 15 15">
  <path fill="#02263E" fill-rule="evenodd" d="M14.5552546,2.78124302 L12.242819,0.466436883 C11.6798221,-0.0983378879 10.7701377,-0.107227312 10.219586,0.440953866 L10.2172155,0.443324379 L1.7787811,8.88827766 L1.60751152,9.05717673 L0.147275388,14.8933802 L5.97399684,13.430181 L6.51802962,12.8748882 L14.5783671,4.80506867 C14.5783671,4.80506867 14.5783671,4.80506867 14.5783671,4.80269816 C15.1295115,4.25629486 15.1176589,3.34423991 14.5552546,2.78124302 L14.5552546,2.78124302 Z M2.20725136,9.64565663 L5.39025796,12.8310337 L2.40163344,13.5807085 L1.4688365,12.5969456 L2.20725136,9.64565663 Z M5.97636735,10.8581741 L4.17062892,9.05065782 L10.214845,2.99933024 L12.0205834,4.80684656 L5.97636735,10.8581741 Z"/>
</svg>
