<svg xmlns="http://www.w3.org/2000/svg" width="16" height="22" viewBox="0 0 16 22">
  <g fill="#02263E" fill-rule="evenodd">
    <path d="M0.641509434,21.1014493 L15.3584906,21.1014493 C15.6709434,21.1014493 15.9245283,20.8417391 15.9245283,20.5217391 L15.9245283,1.97101449 C15.9245283,1.65101449 15.6709434,1.39130435 15.3584906,1.39130435 L12.4316981,1.39130435 C12.1956226,0.707710145 11.5390189,0.231884058 10.7876226,0.231884058 L5.21811321,0.231884058 C4.47064151,0.231884058 3.8149434,0.716057971 3.57192453,1.39130435 L0.641509434,1.39130435 C0.329056604,1.39130435 0.0754716981,1.65101449 0.0754716981,1.97101449 L0.0754716981,20.5217391 C0.0754716981,20.8417391 0.329056604,21.1014493 0.641509434,21.1014493 L0.641509434,21.1014493 Z M4.75109434,2.36119807 C4.64271698,2.23907246 4.59079245,2.07984541 4.60739623,1.91196135 C4.63456604,1.61947826 4.90324528,1.39130435 5.21932075,1.39130435 L10.7888302,1.39130435 C11.0777358,1.39130435 11.3349434,1.58701449 11.3856604,1.84548792 C11.4327547,2.08942995 11.3337358,2.25855072 11.2700377,2.33800966 C11.1604528,2.47342995 11.0001509,2.55072464 10.8301887,2.55072464 L5.16981132,2.55072464 C5.00830189,2.55072464 4.85977358,2.48301449 4.75109434,2.36119807 L4.75109434,2.36119807 Z M1.20754717,2.55072464 L3.57071698,2.55072464 C3.64498113,2.76684058 3.76060377,2.9687343 3.91275472,3.14125604 C4.23456604,3.50237681 4.69222642,3.71014493 5.16981132,3.71014493 L10.8301887,3.71014493 C11.3406792,3.71014493 11.8194717,3.47826087 12.144,3.07261836 C12.2701887,2.91431884 12.3655849,2.73777778 12.4304906,2.55072464 L14.7924528,2.55072464 L14.7924528,19.942029 L1.20754717,19.942029 L1.20754717,2.55072464 Z"/>
    <path d="M5.90218868 5.61963285L4.03773585 7.52788406 3.30535849 6.77781643C3.08498113 6.55087923 2.72513208 6.55087923 2.50475472 6.77781643 2.28286792 7.00475362 2.28286792 7.37082126 2.50475472 7.59775845L3.63683019 8.75717874C3.74762264 8.87064734 3.89283019 8.92753623 4.03773585 8.92753623 4.18264151 8.92753623 4.32784906 8.87064734 4.43743396 8.75717874L6.70158491 6.43833816C6.9234717 6.21140097 6.9234717 5.84533333 6.70158491 5.61839614 6.48120755 5.39238647 6.12256604 5.39238647 5.90218868 5.61963285L5.90218868 5.61963285zM5.90218868 10.257314L4.03773585 12.1655652 3.30535849 11.4154976C3.08498113 11.1885604 2.72513208 11.1885604 2.50475472 11.4154976 2.28286792 11.6424348 2.28286792 12.0085024 2.50475472 12.2354396L3.63683019 13.3948599C3.74762264 13.5083285 3.89283019 13.5652174 4.03773585 13.5652174 4.18264151 13.5652174 4.32784906 13.5083285 4.43743396 13.3948599L6.70158491 11.0760193C6.9234717 10.8490821 6.9234717 10.4830145 6.70158491 10.2560773 6.48120755 10.0300676 6.12256604 10.0300676 5.90218868 10.257314L5.90218868 10.257314zM5.90218868 14.8949952L4.03773585 16.8032464 3.30535849 16.0531787C3.08498113 15.8262415 2.72513208 15.8262415 2.50475472 16.0531787 2.28286792 16.2801159 2.28286792 16.6461836 2.50475472 16.8731208L3.63683019 18.0325411C3.74762264 18.1460097 3.89283019 18.2028986 4.03773585 18.2028986 4.18264151 18.2028986 4.32784906 18.1460097 4.43743396 18.0325411L6.70158491 15.7137005C6.9234717 15.4867633 6.9234717 15.1206957 6.70158491 14.8937585 6.48120755 14.6677488 6.12256604 14.6677488 5.90218868 14.8949952L5.90218868 14.8949952zM13.0943396 5.44927536L8.56603774 5.44927536C8.25358491 5.44927536 8 5.70898551 8 6.02898551 8 6.34898551 8.25358491 6.60869565 8.56603774 6.60869565L13.0943396 6.60869565C13.4067925 6.60869565 13.6603774 6.34898551 13.6603774 6.02898551 13.6603774 5.70898551 13.4067925 5.44927536 13.0943396 5.44927536L13.0943396 5.44927536zM8.56603774 8.92753623L10.8301887 8.92753623C11.1426415 8.92753623 11.3962264 8.66782609 11.3962264 8.34782609 11.3962264 8.02782609 11.1426415 7.76811594 10.8301887 7.76811594L8.56603774 7.76811594C8.25358491 7.76811594 8 8.02782609 8 8.34782609 8 8.66782609 8.25358491 8.92753623 8.56603774 8.92753623L8.56603774 8.92753623zM13.0943396 10.0869565L8.56603774 10.0869565C8.25358491 10.0869565 8 10.3466667 8 10.6666667 8 10.9866667 8.25358491 11.2463768 8.56603774 11.2463768L13.0943396 11.2463768C13.4067925 11.2463768 13.6603774 10.9866667 13.6603774 10.6666667 13.6603774 10.3466667 13.4067925 10.0869565 13.0943396 10.0869565L13.0943396 10.0869565zM8.56603774 13.5652174L10.8301887 13.5652174C11.1426415 13.5652174 11.3962264 13.3055072 11.3962264 12.9855072 11.3962264 12.6655072 11.1426415 12.4057971 10.8301887 12.4057971L8.56603774 12.4057971C8.25358491 12.4057971 8 12.6655072 8 12.9855072 8 13.3055072 8.25358491 13.5652174 8.56603774 13.5652174L8.56603774 13.5652174zM13.0943396 14.7246377L8.56603774 14.7246377C8.25358491 14.7246377 8 14.9843478 8 15.3043478 8 15.6243478 8.25358491 15.884058 8.56603774 15.884058L13.0943396 15.884058C13.4067925 15.884058 13.6603774 15.6243478 13.6603774 15.3043478 13.6603774 14.9843478 13.4067925 14.7246377 13.0943396 14.7246377L13.0943396 14.7246377zM10.8301887 17.0434783L8.56603774 17.0434783C8.25358491 17.0434783 8 17.3031884 8 17.6231884 8 17.9431884 8.25358491 18.2028986 8.56603774 18.2028986L10.8301887 18.2028986C11.1426415 18.2028986 11.3962264 17.9431884 11.3962264 17.6231884 11.3962264 17.3031884 11.1426415 17.0434783 10.8301887 17.0434783L10.8301887 17.0434783z"/>
  </g>
</svg>
