<svg xmlns="http://www.w3.org/2000/svg" width="28" height="29" viewBox="0 0 28 29">
  <path fill="#02263E" fill-rule="evenodd" d="M86.0531745,331.748077 L82.3073272,331.748077 L82.3073272,328.970584 C82.3073272,328.435781 81.8715457,328 81.3367433,328 C80.8019409,328 80.3661594,328.435781 80.3661594,328.970584 L80.3661594,331.748077 L71.3338414,331.748077 L71.3338414,328.970584 C71.3338414,328.435781 70.8980599,328 70.3632575,328 C69.828455,328 69.3926735,328.435781 69.3926735,328.970584 L69.3926735,331.748077 L65.6468263,331.748077 C63.6396445,331.748077 62,333.387722 62,335.394904 L62,352.589761 C62,354.596943 63.6396445,356.236587 65.6468263,356.236587 L86.0531745,356.236587 C88.0603563,356.236587 89.7000008,354.596943 89.7000008,352.589761 L89.7000008,335.394904 C89.7000008,333.387722 88.0603563,331.748077 86.0531745,331.748077 L86.0531745,331.748077 Z M65.6468263,333.687015 L69.3926735,333.687015 L69.3926735,335.025136 C69.3926735,335.560385 69.828455,335.99572 70.3632575,335.99572 C70.8980599,335.99572 71.3338414,335.560385 71.3338414,335.025136 L71.3338414,333.687015 L80.3331524,333.687015 L80.3331524,335.025136 C80.3331524,335.560385 80.7684878,335.99572 81.3037363,335.99572 C81.8385388,335.99572 82.2738742,335.560385 82.2738742,335.025136 L82.2738742,333.687015 L86.0201675,333.687015 C86.9572984,333.687015 87.725826,334.457327 87.725826,335.39312 L87.725826,338.637171 L63.9411678,338.637171 L63.9411678,335.39312 C63.9411678,334.457327 64.7092494,333.687015 65.6468263,333.687015 L65.6468263,333.687015 Z M86.0531745,354.295866 L65.6468263,354.295866 C64.7092494,354.295866 63.9411678,353.525554 63.9411678,352.589761 L63.9411678,340.61313 L87.758833,340.61313 L87.758833,352.589761 C87.758833,353.525554 86.9907514,354.295866 86.0531745,354.295866 L86.0531745,354.295866 Z" transform="translate(-62 -328)"/>
</svg>
