<svg xmlns="http://www.w3.org/2000/svg" width="22" height="23" viewBox="0 0 22 23">
  <path fill="#FFFFFF" fill-rule="evenodd" d="M27.8431007,2.93621955 L24.9086283,2.93621955 L24.9086283,0.76034913 C24.9086283,0.341388373 24.5672399,0 24.1482792,0 C23.7293184,0 23.38793,0.341388373 23.38793,0.76034913 L23.38793,2.93621955 L16.3120707,2.93621955 L16.3120707,0.76034913 C16.3120707,0.341388373 15.9706823,0 15.5517216,0 C15.1327608,0 14.7913725,0.341388373 14.7913725,0.76034913 L14.7913725,2.93621955 L11.8569,2.93621955 C10.2844869,2.93621955 9,4.22070641 9,5.79311959 L9,19.2634592 C9,20.8358724 10.2844869,22.1203592 11.8569,22.1203592 L27.8431007,22.1203592 C29.4155139,22.1203592 30.7000008,20.8358724 30.7000008,19.2634592 L30.7000008,5.79311959 C30.7000008,4.22070641 29.4155139,2.93621955 27.8431007,2.93621955 L27.8431007,2.93621955 Z M11.8569,4.45517068 L14.7913725,4.45517068 L14.7913725,5.50344614 C14.7913725,5.92275632 15.1327608,6.26379527 15.5517216,6.26379527 C15.9706823,6.26379527 16.3120707,5.92275632 16.3120707,5.50344614 L16.3120707,4.45517068 L23.3620726,4.45517068 L23.3620726,5.50344614 C23.3620726,5.92275632 23.7031115,6.26379527 24.1224217,6.26379527 C24.5413825,6.26379527 24.8824214,5.92275632 24.8824214,5.50344614 L24.8824214,4.45517068 L27.8172433,4.45517068 C28.5513855,4.45517068 29.153445,5.05862792 29.153445,5.79172189 L29.153445,8.33309101 L10.5206983,8.33309101 L10.5206983,5.79172189 C10.5206983,5.05862792 11.1224084,4.45517068 11.8569,4.45517068 L11.8569,4.45517068 Z M27.8431007,20.6000104 L11.8569,20.6000104 C11.1224084,20.6000104 10.5206983,19.9965531 10.5206983,19.2634592 L10.5206983,9.88104444 L29.1793025,9.88104444 L29.1793025,19.2634592 C29.1793025,19.9965531 28.5775924,20.6000104 27.8431007,20.6000104 L27.8431007,20.6000104 Z" transform="translate(-9)"/>
</svg>
