<svg xmlns="http://www.w3.org/2000/svg" width="25" height="31" viewBox="0 0 25 31">
  <g fill="#02263E" fill-rule="evenodd">
    <path d="M24.8767544,6.87152113 C24.8679825,6.83222535 24.8561404,6.79467606 24.8425439,6.75887324 C24.8390351,6.75232394 24.8372807,6.74359155 24.8355263,6.73529577 C24.8166667,6.69076056 24.7942982,6.64971831 24.7688596,6.61085915 L24.7688596,6.60911268 C24.7412281,6.56807042 24.7087719,6.53052113 24.6745614,6.49471831 L18.4741228,0.32571831 C18.4399123,0.291661972 18.4004386,0.259352113 18.3609649,0.23184507 C18.3561404,0.228352113 18.3508772,0.227042254 18.345614,0.223549296 C18.3114035,0.20128169 18.2736842,0.180760563 18.2342105,0.163732394 C18.2241228,0.158492958 18.2118421,0.156746479 18.2,0.153690141 C18.1657895,0.141464789 18.1333333,0.129676056 18.0973684,0.122690141 C18.0491228,0.112647887 18.0013158,0.107408451 17.9535088,0.107408451 L0.844736842,0.107408451 C0.438596491,0.107408451 0.107894737,0.434873239 0.107894737,0.840929577 L0.107894737,30.1555775 C0.107894737,30.5598873 0.436842105,30.8890986 0.844736842,30.8890986 L24.1552632,30.8890986 C24.5614035,30.8890986 24.8921053,30.5598873 24.8921053,30.1555775 L24.8921053,7.01647887 C24.8903509,6.96714085 24.8850877,6.9195493 24.8767544,6.87152113 L24.8767544,6.87152113 Z M18.6881579,2.61098592 L22.377193,6.28339437 L18.6881579,6.28339437 L18.6881579,2.61098592 Z M1.58114035,29.4242394 L1.58114035,1.57576056 L17.2166667,1.57576056 L17.2166667,7.01647887 C17.2166667,7.42078873 17.545614,7.75 17.9535088,7.75 L23.4188596,7.75 L23.4188596,29.4242394 L1.58114035,29.4242394 Z"/>
    <path d="M5.39692982 8.41846479L13.8057018 8.41846479C14.2114035 8.41846479 14.5421053 8.091 14.5421053 7.68538028 14.5421053 7.28107042 14.2131579 6.95185915 13.8057018 6.95185915L5.39692982 6.95185915C4.98903509 6.95185915 4.66008772 7.27932394 4.66008772 7.68538028 4.66008772 8.091 4.98903509 8.41846479 5.39692982 8.41846479L5.39692982 8.41846479zM19.6048246 14.7664789L5.39692982 14.7664789C4.98903509 14.7664789 4.66008772 15.0939437 4.66008772 15.5 4.66008772 15.9043099 4.98903509 16.2335211 5.39692982 16.2335211L19.6048246 16.2335211C20.0109649 16.2335211 20.3416667 15.9043099 20.3416667 15.5 20.3399123 15.0956901 20.0109649 14.7664789 19.6048246 14.7664789L19.6048246 14.7664789zM19.6048246 22.5797887L5.39692982 22.5797887C4.98903509 22.5797887 4.66008772 22.909 4.66008772 23.3133099 4.66008772 23.7171831 4.98903509 24.0463944 5.39692982 24.0463944L19.6048246 24.0463944C20.0109649 24.0463944 20.3416667 23.7171831 20.3416667 23.3133099 20.3416667 22.909 20.0109649 22.5797887 19.6048246 22.5797887L19.6048246 22.5797887z"/>
  </g>
</svg>
