<svg xmlns="http://www.w3.org/2000/svg" width="30" height="21" viewBox="0 0 30 21">
  <g fill="#02263E" fill-rule="evenodd">
    <path d="M1.23702128 8.8415311L28.7629787 8.8415311C29.4242553 8.8415311 29.9604255 9.51007177 29.9604255 10.0520096L29.9604255 11.2637799C29.9604255 11.9323206 29.4242553 12.4742584 28.7629787 12.4742584L1.23702128 12.4742584C.575744681 12.4742584.0395744681 11.8057177.0395744681 11.2637799L.0395744681 10.0520096C.0395744681 9.3834689.575744681 8.8415311 1.23702128 8.8415311L1.23702128 8.8415311zM1.23702128.363014354L28.7629787.363014354C29.4242553.363014354 29.9604255 1.03220096 29.9604255 1.57478469L29.9604255 2.78526316C29.9604255 3.45444976 29.4242553 3.99703349 28.7629787 3.99703349L1.23702128 3.99703349C.575744681 3.99703349.0395744681 3.32784689.0395744681 2.78526316L.0395744681 1.57478469C.0395744681.905598086.575744681.363014354 1.23702128.363014354L1.23702128.363014354zM1.23702128 17.318756L28.7629787 17.318756C29.4242553 17.318756 29.9604255 17.9879426 29.9604255 18.5305263L29.9604255 19.7410048C29.9604255 20.4101914 29.4242553 20.9527751 28.7629787 20.9527751L1.23702128 20.9527751C.575744681 20.9527751.0395744681 20.2835885.0395744681 19.7410048L.0395744681 18.5305263C.0395744681 17.8613397.575744681 17.318756 1.23702128 17.318756L1.23702128 17.318756z"/>
  </g>
</svg>
