<svg xmlns="http://www.w3.org/2000/svg" width="96" height="98" viewBox="0 0 96 98">
  <g fill="#B5BBC8" fill-rule="evenodd">
    <path d="M38.8121644,0.157068493 C17.4897808,0.157068493 0.21090411,17.4413151 0.21090411,38.7583288 C0.21090411,60.0753425 17.4897808,77.359589 38.8121644,77.359589 C60.1345479,77.359589 77.4134247,60.0807123 77.4134247,38.7583288 C77.4134247,17.4413151 60.1345479,0.157068493 38.8121644,0.157068493 L38.8121644,0.157068493 Z M38.8121644,52.2568219 C31.3561096,52.2568219 25.3190411,46.215726 25.3190411,38.7583288 C25.3190411,31.3063014 31.360137,25.2598356 38.8121644,25.2598356 C46.2641918,25.2598356 52.3052877,31.3009315 52.3052877,38.7583288 C52.3052877,46.2103562 46.2641918,52.2568219 38.8121644,52.2568219 L38.8121644,52.2568219 Z"/>
    <path d="M45.0063014 38.7583288C45.0063014 47.0131507 32.6247397 47.0131507 32.6247397 38.7583288 32.6247397 30.5048493 45.0063014 30.5048493 45.0063014 38.7583288M18.5073699 77.9569863C18.3140548 78.7490411 17.7945205 79.5679452 17.7945205 80.4217534L17.7945205 86.3849863C17.7945205 92.1481918 21.1560548 97.3287671 26.9192603 97.3287671L50.7117808 97.3287671C56.4696164 97.3287671 58.0684932 92.1481918 58.0684932 86.3849863L58.0684932 80.4217534C58.0684932 79.5679452 58.4309589 78.7490411 58.2363014 77.9569863 52.3469041 81.282274 45.6144384 83.202 38.3664658 83.202 31.1305753 83.1966301 24.3967671 81.2769041 18.5073699 77.9569863L18.5073699 77.9569863z"/>
    <path d="M58.0107671,86.358137 C57.3610137,86.358137 56.9676712,86.3165205 56.8884658,86.3111507 L57.543589,80.3385205 L57.2133425,83.3214795 L57.5180822,80.3331507 C57.8590685,80.3693973 65.8453973,80.9829041 74.2304384,72.3991781 C85.064137,61.2969863 86.4441918,43.3831233 86.4589589,43.2059178 L92.4476986,43.6193973 C92.3953425,44.4423288 90.9320548,63.8879452 78.5303562,76.5943836 C69.8365479,85.4989589 61.0675616,86.358137 58.0107671,86.358137 L58.0107671,86.358137 Z"/>
    <path d="M95.7890959,47.138 C95.7890959,56.5876164 81.6193699,56.5876164 81.6193699,47.138 C81.6193699,37.6883836 95.7890959,37.6883836 95.7890959,47.138"/>
  </g>
</svg>
