<svg xmlns="http://www.w3.org/2000/svg" width="18" height="24" viewBox="0 0 18 24">
  <g fill="#02263E" fill-rule="evenodd">
    <path d="M14.5346786,6.72 L7.58378571,6.72 L7.14792857,5.71136 C7.35010714,5.34496 7.48960714,4.95264 7.56353571,4.5312 C7.91903571,2.47488 6.52789286,0.51616 4.46367857,0.16256 C4.24896429,0.1264 4.03167857,0.10752 3.81567857,0.10752 C1.96232143,0.10752 0.38925,1.43008 0.0739285714,3.2512 C-0.0980357143,4.24736 0.129214286,5.2512 0.715821429,6.07616 C1.04721429,6.54368 1.48017857,6.91872 1.96617857,7.19008 C1.02696429,7.75008 0.401785714,8.7712 0.401785714,9.93888 L0.401785714,20.81984 C0.401785714,22.58624 1.83053571,24 3.60610714,24 L12.3987857,24 C12.5546786,24 12.7028571,23.95008 12.8118214,23.84 C12.8545714,23.79744 12.8873571,23.7536 12.9137143,23.70112 L17.4426429,19.16128 C17.6284286,19.06496 17.7589286,18.87616 17.7589286,18.65248 L17.7589286,9.93888 C17.7589286,8.1712 16.3099286,6.72 14.5346786,6.72 L14.5346786,6.72 Z M1.60714286,9.93888 C1.60714286,8.8112 2.47210714,7.92 3.60610714,7.92 L4.44471429,7.92 L7.98685714,11.2912 C8.13857143,11.47264 8.35714286,11.54496 8.59821429,11.54496 L8.59821429,11.55488 C8.83928571,11.55488 9.04275,11.44384 9.16939286,11.24992 C9.25232143,11.12384 9.36289286,10.87136 9.19832143,10.49504 L8.08232143,7.92 L14.5359643,7.92 C15.6683571,7.92 16.7946429,8.8112 16.7946429,9.93888 L16.7946429,18.07744 L15.0933214,18.08992 C14.2344643,18.09632 13.3781786,18.43616 12.7755,19.0464 C12.1728214,19.65632 11.8189286,20.43136 11.8263214,21.2864 L11.8112143,22.8 L3.60610714,22.8 C2.47339286,22.8 1.60714286,21.94624 1.60714286,20.81984 L1.60714286,9.93888 Z M1.66628571,5.40736 C1.25935714,4.83488 1.10121429,4.13888 1.22046429,3.44736 C1.43903571,2.18368 2.52996429,1.26624 3.81439286,1.26624 C3.96385714,1.26624 4.11589286,1.27872 4.26535714,1.30496 C5.69667857,1.55008 6.66225,2.91136 6.41603571,4.3376 C6.35207143,4.70624 6.21514286,5.0464 6.01167857,5.35008 C5.90239286,5.51264 5.88246429,5.72 5.96025,5.90016 L7.29996429,9.02112 L4.8015,6.62624 C4.69221429,6.52128 4.54660714,6.46368 4.39714286,6.46368 C4.36178571,6.46368 4.32675,6.46624 4.29171429,6.4736 C3.99021429,6.52992 3.67746429,6.5312 3.37114286,6.47744 C2.67814286,6.36128 2.07289286,5.98016 1.66628571,5.40736 L1.66628571,5.40736 Z"/>
    <path d="M3.30460714 13.68L14.6487857 13.68C14.9538214 13.68 15.2013214 13.38368 15.2013214 13.08 15.2013214 12.77632 14.9538214 12.48 14.6487857 12.48L3.30460714 12.48C2.99957143 12.48 2.75207143 12.77632 2.75207143 13.08 2.75207143 13.38368 2.99957143 13.68 3.30460714 13.68L3.30460714 13.68zM3.30460714 16.8L14.6487857 16.8C14.9538214 16.8 15.2013214 16.50368 15.2013214 16.2 15.2013214 15.89632 14.9538214 15.6 14.6487857 15.6L3.30460714 15.6C2.99957143 15.6 2.75207143 15.89632 2.75207143 16.2 2.75207143 16.50368 2.99957143 16.8 3.30460714 16.8L3.30460714 16.8zM3.30460714 19.92L10.0684286 19.92C10.3734643 19.92 10.6209643 19.62368 10.6209643 19.32 10.6209643 19.01632 10.3734643 18.72 10.0684286 18.72L3.30460714 18.72C2.99957143 18.72 2.75207143 19.01632 2.75207143 19.32 2.75207143 19.62368 2.99957143 19.92 3.30460714 19.92L3.30460714 19.92z"/>
  </g>
</svg>
