<svg xmlns="http://www.w3.org/2000/svg" width="44" height="30" viewBox="0 0 44 30">
  <path fill="#02263E" fill-rule="evenodd" d="M435.699924,184.000383 L435.699924,184.000383 C435.636889,184.003458 435.571549,184.009607 435.507746,184.024982 L410.284796,190.330719 C409.885066,190.429883 409.602949,190.78964 409.602949,191.203975 L406.900929,191.203975 C406.402036,191.203975 406,191.60678 406,192.104904 L406,197.510481 C406,198.008606 406.402036,198.411411 406.900929,198.411411 L409.602949,198.411411 C409.602949,198.825746 409.88276,199.185503 410.284796,199.287741 L414.107596,200.239406 L414.107596,202.915289 C414.107596,203.34423 414.410469,203.71398 414.830954,203.79777 L423.839479,205.599629 C424.397564,205.711092 424.917212,205.284457 424.917212,204.717148 L424.917212,202.942194 L435.507746,205.593479 C436.078898,205.737997 436.630833,205.305212 436.627758,204.717148 L436.627758,200.486162 C438.820122,199.44379 440.2407,197.23682 440.231476,194.786938 C440.222251,192.354736 438.802442,190.168521 436.627758,189.132298 L436.627758,184.898237 C436.625452,184.390888 436.204967,183.985777 435.699924,184.000383 L435.699924,184.000383 Z M447.215985,185.241083 L442.198608,187.255875 L442.87123,188.92859 L447.888607,186.913029 L447.215985,185.241083 Z M434.826668,186.057454 L434.826668,203.567156 L411.404808,197.711115 L411.404808,191.912727 L434.826668,186.057454 Z M436.627758,191.210125 C437.739314,192.044945 438.423467,193.35406 438.429617,194.790012 C438.435767,196.233652 437.745464,197.555066 436.627758,198.396036 L436.627758,191.210125 Z M407.80109,193.005834 L409.602949,193.005834 L409.602949,196.609552 L407.80109,196.609552 L407.80109,193.005834 Z M443.835194,193.906763 L443.835194,195.708622 L449.240002,195.708622 L449.240002,193.906763 L443.835194,193.906763 Z M415.908687,200.68987 L423.115354,202.491729 L423.115354,203.617891 L415.908687,202.179633 L415.908687,200.68987 Z M442.735937,201.068845 L442.03026,202.726186 L446.999977,204.851673 L447.705654,203.194331 L442.735937,201.068845 Z" transform="rotate(-22 -233.245 1150.155)"/>
</svg>
