<svg xmlns="http://www.w3.org/2000/svg" width="32" height="23" viewBox="0 0 32 23">
  <path fill="#FFFFFF" fill-rule="evenodd" d="M29.8115936,5.41141923 L29.8115936,5.41141923 C29.7649447,5.41369479 29.7165892,5.4182459 29.6693714,5.42962367 L11.0029892,10.0962192 C10.707167,10.1696059 10.4983847,10.4358459 10.4983847,10.742477 L8.4987403,10.742477 C8.12953141,10.742477 7.83200252,11.0405748 7.83200252,11.4092148 L7.83200252,15.4096415 C7.83200252,15.7782815 8.12953141,16.0763792 8.4987403,16.0763792 L10.4983847,16.0763792 C10.4983847,16.3830103 10.7054603,16.6492503 11.0029892,16.7249126 L13.8320736,17.429197 L13.8320736,19.4094992 C13.8320736,19.7269392 14.0562159,20.0005748 14.3673981,20.0625837 L21.034207,21.3960592 C21.4472203,21.4785481 21.8317892,21.1628148 21.8317892,20.7429748 L21.8317892,19.4294103 L29.6693714,21.3915081 C30.0920559,21.4984592 30.5005181,21.1781748 30.4982425,20.7429748 L30.4982425,17.6118103 C32.1207136,16.840397 33.1720203,15.207117 33.1651936,13.3940681 C33.158367,11.5941037 32.1076292,9.97618367 30.4982425,9.20932145 L30.4982425,6.07588145 C30.4965359,5.70041479 30.1853536,5.40061034 29.8115936,5.41141923 L29.8115936,5.41141923 Z M38.3341181,6.3296059 L34.6209803,7.82066367 L35.1187581,9.0585659 L38.8318959,7.56693923 L38.3341181,6.3296059 Z M29.1653359,6.9337659 L29.1653359,19.891917 L11.8318603,15.5581215 L11.8318603,11.2669926 L29.1653359,6.9337659 Z M30.4982425,10.7470281 C31.3208559,11.3648415 31.827167,12.3336592 31.8317181,13.3963437 C31.8362692,14.464717 31.325407,15.442637 30.4982425,16.0650015 L30.4982425,10.7470281 Z M9.16490919,12.0759526 L10.4983847,12.0759526 L10.4983847,14.7429037 L9.16490919,14.7429037 L9.16490919,12.0759526 Z M35.8321447,12.7426903 L35.8321447,14.0761659 L39.8320025,14.0761659 L39.8320025,12.7426903 L35.8321447,12.7426903 Z M15.1649803,17.7625659 L20.4983136,19.0960415 L20.4983136,19.9294637 L15.1649803,18.8650726 L15.1649803,17.7625659 Z M35.0186336,18.0430281 L34.4963936,19.2695526 L38.1742603,20.8425303 L38.6965003,19.6160059 L35.0186336,18.0430281 Z" transform="rotate(-22 17.26 33.49)"/>
</svg>
