<svg xmlns="http://www.w3.org/2000/svg" width="33" height="26" viewBox="0 0 33 26">
  <path fill="#02263E" fill-rule="evenodd" d="M438.61154,48.4611401 C439.805023,47.1235278 440.536394,45.4030415 440.536394,43.4923415 C440.536394,39.3639085 437.147568,36 432.988553,36 C430.793826,36 428.791338,36.95535 427.405,38.4843993 C426.018662,36.95535 424.016174,36 421.821447,36 C417.662432,36 414.273606,39.3639085 414.273606,43.4923415 C414.273606,45.4030415 415.004977,47.1235278 416.19846,48.4611401 C413.156526,49.7614437 411,52.7810102 411,56.2592915 L411,60.7705986 C411,61.3051542 411.423295,61.7259486 411.963043,61.7259486 L442.846957,61.7259486 C443.386705,61.7259486 443.81,61.3051542 443.81,60.7705986 L443.81,56.2592915 C443.81,52.7810102 441.692292,49.7614437 438.61154,48.4611401 L438.61154,48.4611401 Z M424.093192,59.814637 L412.925469,59.814637 L412.925469,56.2592915 C412.925469,53.201193 415.043794,50.6018092 417.93169,49.9143486 C419.086972,50.6018092 420.396291,51.0226035 421.821447,51.0226035 C423.245986,51.0226035 424.594123,50.6018092 425.710587,49.9143486 C428.599099,50.6403412 430.716808,53.201193 430.716808,56.2592915 L430.716808,59.814637 L424.093192,59.814637 Z M416.19846,43.4923415 C416.19846,40.3957109 418.740695,37.9107 421.821447,37.9107 C424.902198,37.9107 427.443201,40.434243 427.443201,43.4923415 C427.443201,46.5883606 424.902198,49.0727599 421.821447,49.0727599 C418.740695,49.0727599 416.19846,46.5883606 416.19846,43.4923415 L416.19846,43.4923415 Z M432.988553,37.9107 C436.108122,37.9107 438.61154,40.434243 438.61154,43.4923415 C438.61154,46.5883606 436.069305,49.0727599 432.988553,49.0727599 C431.17892,49.0727599 429.561526,48.2323944 428.521464,46.8941704 C429.061212,45.8617563 429.369287,44.715581 429.369287,43.4923415 C429.369287,42.2691021 429.061212,41.1217035 428.521464,40.0899011 C429.561526,38.7902092 431.17892,37.9107 432.988553,37.9107 L432.988553,37.9107 Z M441.884531,59.814637 L432.642277,59.814637 L432.642277,56.2592915 C432.642277,54.0427817 431.79507,52.0164856 430.369915,50.5259683 C431.17892,50.8317782 432.064328,50.9846831 432.988553,50.9846831 C434.413709,50.9846831 435.761229,50.5638887 436.87831,49.8758165 C439.766206,50.6018092 441.884531,53.1632725 441.884531,56.2213711 L441.884531,59.814637 Z" transform="translate(-411 -36)"/>
</svg>
