<svg xmlns="http://www.w3.org/2000/svg" width="25" height="18" viewBox="0 0 25 18">
  <path fill="#02263E" fill-rule="evenodd" d="M19.9437037,10.6725926 C20.4196296,10.6725926 20.8088889,11.0603704 20.8088889,11.5377778 C20.8088889,12.0151852 20.4196296,12.402963 19.9437037,12.402963 C19.4662963,12.402963 19.077037,12.0151852 19.077037,11.5377778 C19.077037,11.0603704 19.4662963,10.6725926 19.9437037,10.6725926 L19.9437037,10.6725926 Z M16.83,13.5140741 C17.4622222,13.5140741 18.0251852,13.2177778 18.387037,12.7559259 C18.7485185,13.2177778 19.3114815,13.5140741 19.9437037,13.5140741 C21.0344444,13.5140741 21.92,12.6303704 21.92,11.5377778 C21.92,10.447037 21.0344444,9.56148148 19.9437037,9.56148148 C19.3114815,9.56148148 18.7485185,9.85814815 18.387037,10.3196296 C18.0251852,9.85814815 17.4622222,9.56148148 16.83,9.56148148 C15.7377778,9.56148148 14.8537037,10.447037 14.8537037,11.5377778 C14.8537037,12.6303704 15.7377778,13.5140741 16.83,13.5140741 L16.83,13.5140741 Z M24.0003704,14.9596296 C24.0003704,15.6251852 23.4592593,16.1659259 22.7937037,16.1659259 L2.20777778,16.1659259 C1.54222222,16.1659259 0.99962963,15.6251852 0.99962963,14.9596296 L0.99962963,6.92555556 L24.0003704,6.92555556 L24.0003704,14.9596296 Z M2.20777778,0.99962963 L22.7937037,0.99962963 C23.4592593,0.99962963 24.0003704,1.54222222 24.0003704,2.20777778 L24.0003704,3.33777778 L0.99962963,3.33777778 L0.99962963,2.20777778 C0.99962963,1.54222222 1.54222222,0.99962963 2.20777778,0.99962963 L2.20777778,0.99962963 Z M25,2.20777778 C25,0.988148148 24.0118519,0 22.7937037,0 L2.20777778,0 C0.988148148,0 0,0.988148148 0,2.20777778 L0,14.9596296 C0,16.1792593 0.988148148,17.1674074 2.20777778,17.1674074 L22.7937037,17.1674074 C24.0118519,17.1674074 25,16.1792593 25,14.9596296 L25,2.20777778 Z"/>
</svg>
