<svg xmlns="http://www.w3.org/2000/svg" width="21" height="17" viewBox="0 0 21 17">
  <path fill="#02263E" fill-rule="evenodd" d="M17.0541868,7.75359831 C17.791338,6.9213062 18.2430668,5.85078141 18.2430668,4.66190141 C18.2430668,2.09309859 16.1499682,0 13.5811654,0 C12.2255986,0 10.9887676,0.59444 10.1325,1.54584845 C9.27623239,0.59444 8.03940141,0 6.68383465,0 C4.11503183,0 2.02193324,2.09309859 2.02193324,4.66190141 C2.02193324,5.85078141 2.47366197,6.9213062 3.21081324,7.75359831 C1.33197183,8.56267606 0,10.4415175 0,12.6057814 L0,15.4128169 C0,15.7454293 0.261447042,16.0072569 0.594820563,16.0072569 L19.6701794,16.0072569 C20.003553,16.0072569 20.265,15.7454293 20.265,15.4128169 L20.265,12.6057814 C20.265,10.4415175 18.9570037,8.56267606 17.0541868,7.75359831 L17.0541868,7.75359831 Z M8.08697183,14.8179963 L1.18926056,14.8179963 L1.18926056,12.6057814 C1.18926056,10.7029645 2.49763746,9.08557014 4.28133803,8.6578169 C4.99489437,9.08557014 5.80359155,9.34739775 6.68383465,9.34739775 C7.56369718,9.34739775 8.39636986,9.08557014 9.0859507,8.6578169 C10.8700318,9.10954563 12.1780282,10.7029645 12.1780282,12.6057814 L12.1780282,14.8179963 L8.08697183,14.8179963 Z M3.21081324,4.66190141 C3.21081324,2.73510901 4.78101775,1.18888 6.68383465,1.18888 C8.58665155,1.18888 10.1560949,2.75908451 10.1560949,4.66190141 C10.1560949,6.58831324 8.58665155,8.13416169 6.68383465,8.13416169 C4.78101775,8.13416169 3.21081324,6.58831324 3.21081324,4.66190141 L3.21081324,4.66190141 Z M13.5811654,1.18888 C15.5079577,1.18888 17.0541868,2.75908451 17.0541868,4.66190141 C17.0541868,6.58831324 15.4839823,8.13416169 13.5811654,8.13416169 C12.4634507,8.13416169 11.4644718,7.61126761 10.8220808,6.77859493 C11.1554544,6.13620394 11.3457361,5.42302817 11.3457361,4.66190141 C11.3457361,3.90077465 11.1554544,3.18683775 10.8220808,2.54482732 C11.4644718,1.73613014 12.4634507,1.18888 13.5811654,1.18888 L13.5811654,1.18888 Z M19.0757394,14.8179963 L13.3672887,14.8179963 L13.3672887,12.6057814 C13.3672887,11.2266197 12.8440141,9.96581324 11.963771,9.03838028 C12.4634507,9.22866197 13.0103203,9.32380282 13.5811654,9.32380282 C14.4614085,9.32380282 15.2937006,9.06197521 15.983662,8.63384141 C17.7673625,9.08557014 19.0757394,10.6793696 19.0757394,12.5821865 L19.0757394,14.8179963 Z"/>
</svg>
