<svg xmlns="http://www.w3.org/2000/svg" width="146" height="23" viewBox="0 0 146 23">
  <g fill="#FFFFFF" fill-rule="evenodd">
    <path d="M3.4357557,4.81361323 C3.4357557,5.29244977 3.56390521,5.69147423 3.82020809,6.01069859 C4.07651096,6.32992295 4.41758582,6.6032547 4.8434429,6.83070206 C5.26929999,7.05814941 5.75823967,7.25766164 6.31027663,7.42924474 C6.86231359,7.60082783 7.43011452,7.77440347 8.01369644,7.94997687 C8.76288946,8.18141453 9.46081143,8.43279994 10.1074833,8.70414064 C10.7541552,8.97548135 11.31407,9.30467653 11.7872445,9.69173606 C12.260419,10.0787956 12.6330384,10.5396689 12.9051137,11.0743697 C13.1771891,11.6090705 13.3132247,12.2514998 13.3132247,13.0016771 C13.3132247,13.799738 13.1515592,14.5159869 12.8282233,15.1504453 C12.5048873,15.7849037 12.0514352,16.3235867 11.4678533,16.7665105 C10.8842714,17.2094343 10.1824063,17.5486051 9.36223713,17.7840331 C8.54206793,18.019461 7.63122061,18.1371733 6.62966785,18.1371733 C5.88047483,18.1371733 5.16875214,18.0733293 4.49447843,17.9456396 C3.82020472,17.8179499 3.20508705,17.640384 2.64910697,17.4129366 C2.09312689,17.1854893 1.60615873,16.9181429 1.18818789,16.6108894 C0.770217053,16.303636 0.442942909,15.9664603 0.206355641,15.5993523 C0.143265703,15.4796432 0.111721207,15.3439749 0.111721207,15.1923433 C0.111721207,15.0486923 0.143265703,14.9010533 0.206355641,14.7494217 C0.269445579,14.5977901 0.350278349,14.4601267 0.448856378,14.3364272 C0.547434406,14.2127278 0.657840142,14.1109766 0.780076897,14.0311705 C0.902313652,13.9513644 1.02257704,13.9114619 1.14087068,13.9114619 C1.27493679,13.9114619 1.41097243,13.9553546 1.54898167,14.0431413 C1.68699091,14.130928 1.82302655,14.2187134 1.95709267,14.3065001 C2.20945242,14.4740929 2.49926748,14.6396881 2.82654653,14.8032905 C3.15382558,14.966893 3.51264423,15.112537 3.90301322,15.2402267 C4.29338221,15.3679164 4.71528984,15.4716628 5.16874877,15.5514689 C5.6222077,15.631275 6.10128973,15.6711774 6.60600924,15.6711774 C7.11072874,15.6711774 7.57995312,15.6232945 8.01369644,15.5275272 C8.44743977,15.4317599 8.82400219,15.2861159 9.143395,15.090591 C9.46278781,14.8950661 9.71317225,14.6496661 9.89455582,14.3543835 C10.0759394,14.059101 10.1666298,13.7079595 10.1666298,13.3009484 C10.1666298,12.7742282 10.0365088,12.3432818 9.77626278,12.0080962 C9.51601678,11.6729107 9.17297039,11.3876082 8.74711331,11.1521802 C8.32125622,10.9167522 7.8362596,10.71724 7.29210888,10.5536375 C6.74795817,10.390035 6.19198643,10.2164594 5.62417699,10.0329054 C5.41124844,9.96107991 5.15889248,9.87329453 4.86710151,9.76954661 C4.57531055,9.66579869 4.28155243,9.55207672 3.98581835,9.42837728 C3.69008426,9.30467785 3.41012686,9.17699002 3.14593775,9.04530997 C2.88174863,8.91362992 2.66685175,8.78793722 2.50124066,8.66822808 C1.05805833,7.94199267 0.336477987,6.71299732 0.336477987,4.98120518 C0.336477987,4.21506672 0.50011506,3.53073977 0.827394114,2.92820379 C1.15467317,2.32566782 1.60615376,1.81491651 2.18184945,1.39593454 C2.75754513,0.976952566 3.4357518,0.657732996 4.21648978,0.43826625 C4.99722776,0.218799504 5.84498609,0.109067777 6.75979019,0.109067777 C7.9742715,0.109067777 9.05861355,0.286633663 10.0128489,0.641770761 C10.9670842,0.996907859 11.7911841,1.52960552 12.4851734,2.23987971 C12.5876946,2.35160824 12.6586697,2.46932045 12.6981009,2.59301989 C12.7375321,2.71671933 12.7572474,2.85039253 12.7572474,2.99404349 C12.7572474,3.12971384 12.7375321,3.2693724 12.6981009,3.41302336 C12.6586697,3.55667432 12.5955807,3.6883524 12.5088321,3.80806153 C12.4220834,3.92777067 12.3097061,4.02553166 12.1716969,4.10134744 C12.0336876,4.17716323 11.8661075,4.21507055 11.6689515,4.21507055 C11.4481367,4.21507055 11.1997238,4.09536321 10.9237053,3.85594495 C10.7107767,3.70431338 10.4623638,3.55068896 10.1784591,3.39506708 C9.8945544,3.23944521 9.5830525,3.10178177 9.24394408,2.98207263 C8.90483567,2.8623635 8.54207396,2.76460251 8.15564809,2.68878672 C7.76922222,2.61297094 7.36308684,2.57506361 6.93722976,2.57506361 C6.51925892,2.57506361 6.10326588,2.61696118 5.68923816,2.70075758 C5.27521044,2.78455397 4.90061955,2.91623204 4.56545426,3.09579574 C4.23028896,3.27535945 3.95821768,3.50679363 3.74923226,3.79010525 C3.54024684,4.07341687 3.4357557,4.41458278 3.4357557,4.81361323 L3.4357557,4.81361323 Z M15.3951823,11.7088249 C15.3951823,10.910764 15.5391041,10.128676 15.8269519,9.36253759 C16.1147997,8.59639913 16.5209351,7.9320234 17.0453702,7.36939047 C17.5698053,6.80675754 18.1947807,6.36783063 18.920315,6.05259658 C19.6458492,5.73736252 20.4462908,5.57974786 21.3216637,5.57974786 C21.7475208,5.57974786 22.1832291,5.61765518 22.6288018,5.69347097 C23.0743745,5.76928675 23.4805099,5.88300873 23.8472202,6.0346403 C24.2139304,6.18627187 24.5155747,6.37381336 24.7521619,6.59727041 C24.9887492,6.82072746 25.1070411,7.07610312 25.1070411,7.36340504 C25.1070411,7.61080392 25.0281798,7.8322625 24.870455,8.02778742 C24.7127301,8.22331234 24.4958617,8.32107333 24.2198433,8.32107333 C24.1409808,8.32107333 24.0542335,8.30910259 23.9595986,8.28516077 C23.549514,8.11756798 23.1473216,7.98389479 22.7530095,7.88413717 C22.3586974,7.78437956 21.9762204,7.7345015 21.605567,7.7345015 C21.1087338,7.7345015 20.6533101,7.83026737 20.2392824,8.02180199 C19.8252547,8.2133366 19.4703791,8.48467324 19.174645,8.83582003 C18.8789109,9.18696683 18.6502133,9.61791325 18.4885454,10.1286722 C18.3268774,10.6394312 18.2460446,11.158163 18.2460446,11.6848832 C18.2460446,12.1078555 18.3091336,12.5667336 18.4353135,13.0615313 C18.5614934,13.5563291 18.760618,13.995256 19.0326933,14.3783252 C19.3047687,14.7613945 19.6478151,15.0706384 20.0618428,15.3060664 C20.4758705,15.5414944 20.9746679,15.6592066 21.5582498,15.6592066 C21.9367894,15.6592066 22.3527825,15.6053383 22.8062414,15.4976 C23.2597003,15.3898618 23.7072379,15.2362374 24.1488674,15.0367222 C24.2435023,15.0127804 24.3341928,15.0008096 24.4209414,15.0008096 C24.6890737,15.0008096 24.901999,15.0965755 25.0597239,15.2881101 C25.2174487,15.4796447 25.2963099,15.6991082 25.2963099,15.9465071 C25.2963099,16.233809 25.1681604,16.4931749 24.9118576,16.7246125 C24.6555547,16.9560502 24.3282805,17.1555624 23.9300253,17.3231552 C23.5317701,17.490748 23.0901471,17.620431 22.6051432,17.712208 C22.1201393,17.803985 21.6528865,17.8498728 21.2033707,17.8498728 C20.3279978,17.8498728 19.5314993,17.6922581 18.8138512,17.3770241 C18.0962032,17.06179 17.4850286,16.6268533 16.9803091,16.072201 C16.4755896,15.5175487 16.0852264,14.8551681 15.8092079,14.0850393 C15.5331895,13.3149106 15.3951823,12.522847 15.3951823,11.7088249 L15.3951823,11.7088249 Z M35.990001,10.1286722 C35.990001,9.67377751 35.926912,9.27874329 35.8007321,8.94355771 C35.6745522,8.60837214 35.5050006,8.32905502 35.292072,8.10559796 C35.0791435,7.88214091 34.8307306,7.71654576 34.5468259,7.60880754 C34.2629211,7.50106932 33.9632484,7.44720102 33.6477987,7.44720102 C33.2298279,7.44720102 32.8394648,7.51503518 32.4766976,7.65070553 C32.1139305,7.78637588 31.796514,7.99187348 31.5244386,8.26720449 C31.2523633,8.5425355 31.0374664,8.86375019 30.8797415,9.2308582 C30.7220167,9.59796621 30.6431555,10.0608346 30.6431555,10.6194772 L30.6431555,16.3535161 C30.6431555,16.5769731 30.6037248,16.7724951 30.5248624,16.9400879 C30.446,17.1076807 30.3415089,17.2493344 30.2113859,17.3650532 C30.0812629,17.480772 29.9314265,17.5665623 29.7618723,17.6224266 C29.5923181,17.6782908 29.4207949,17.7062225 29.2472976,17.7062225 C29.0738002,17.7062225 28.9042486,17.6782908 28.7386375,17.6224266 C28.5730264,17.5665623 28.4251616,17.480772 28.2950386,17.3650532 C28.1649156,17.2493344 28.0604244,17.1076807 27.981562,16.9400879 C27.9026996,16.7724951 27.863269,16.5769731 27.863269,16.3535161 L27.863269,1.82089984 C27.863269,1.6054234 27.9026996,1.41389165 27.981562,1.24629887 C28.0604244,1.07870608 28.1649156,0.941042639 28.2950386,0.833304418 C28.4251616,0.725566197 28.5749979,0.643766183 28.7445521,0.58790192 C28.9141063,0.532037657 29.0856295,0.504105945 29.2591269,0.504105945 C29.4326242,0.504105945 29.6021759,0.532037657 29.7677869,0.58790192 C29.933398,0.643766183 30.0812629,0.725566197 30.2113859,0.833304418 C30.3415089,0.941042639 30.446,1.07870608 30.5248624,1.24629887 C30.6037248,1.41389165 30.6431555,1.6054234 30.6431555,1.82089984 L30.6431555,7.94997687 C30.7851078,7.65469434 30.9921186,7.34944062 31.2641939,7.03420657 C31.5362693,6.71897252 31.8497427,6.45362125 32.2046236,6.23814481 C32.5595045,6.02266837 32.9419815,5.85906834 33.3520661,5.74733981 C33.7621507,5.63561128 34.1801153,5.57974786 34.6059724,5.57974786 C35.1580093,5.57974786 35.6844081,5.66753324 36.1851845,5.84310664 C36.6859609,6.01868004 37.1275838,6.29201179 37.5100666,6.66311011 C37.8925493,7.03420842 38.1961651,7.50904753 38.420923,8.08764168 C38.6456809,8.66623583 38.7580582,9.35455303 38.7580582,10.1526139 L38.7580582,16.3535161 C38.7580582,16.5769731 38.7186276,16.7724951 38.6397651,16.9400879 C38.5609027,17.1076807 38.4564116,17.2493344 38.3262886,17.3650532 C38.1961656,17.480772 38.0463292,17.5665623 37.876775,17.6224266 C37.7072208,17.6782908 37.5356976,17.7062225 37.3622003,17.7062225 C37.1887029,17.7062225 37.0211228,17.6782908 36.8594548,17.6224266 C36.6977869,17.5665623 36.5518936,17.480772 36.4217706,17.3650532 C36.2916476,17.2493344 36.1871564,17.1076807 36.108294,16.9400879 C36.0294316,16.7724951 35.990001,16.5769731 35.990001,16.3535161 L35.990001,10.1286722 Z M73.0906422,1.89272496 C73.0906422,1.6612873 73.1300728,1.45977995 73.2089352,1.28819685 C73.2877977,1.11661376 73.3922888,0.972964955 73.5224118,0.857246125 C73.6525348,0.741527296 73.8023712,0.653741914 73.9719254,0.593887347 C74.1414796,0.53403278 74.3130028,0.504105945 74.4865001,0.504105945 C74.6599974,0.504105945 74.8295491,0.53403278 74.9951602,0.593887347 C75.1607713,0.653741914 75.3086361,0.741527296 75.4387591,0.857246125 C75.5688821,0.972964955 75.6733732,1.11661376 75.7522357,1.28819685 C75.8310981,1.45977995 75.8705287,1.6612873 75.8705287,1.89272496 L75.8705287,16.3176035 C75.8705287,16.5490412 75.8291265,16.7505485 75.746321,16.9221316 C75.6635155,17.0937147 75.5570528,17.2373635 75.4269298,17.3530824 C75.2968068,17.4688012 75.1469704,17.5565866 74.9774162,17.6164411 C74.807862,17.6762957 74.6363388,17.7062225 74.4628415,17.7062225 C74.2893442,17.7062225 74.1197925,17.6782908 73.9541814,17.6224266 C73.7885703,17.5665623 73.642677,17.480772 73.5164972,17.3650532 C73.3903173,17.2493344 73.2877977,17.1036904 73.2089352,16.928117 C73.1300728,16.7525437 73.0906422,16.5490412 73.0906422,16.3176035 L73.0906422,1.89272496 Z"/>
    <g transform="translate(55.855 5.618)">
      <path d="M6.52971948,0.026741247 C2.94246313,0.026741247 0.0354822952,2.96942121 0.0354822952,6.5986884 C0.0354822952,10.2279556 2.94246313,13.1706356 6.52971948,13.1706356 C10.1169758,13.1706356 13.0239567,10.2288698 13.0239567,6.5986884 C13.0239567,2.96942121 10.1169758,0.026741247 6.52971948,0.026741247 L6.52971948,0.026741247 Z M6.52971948,8.89683575 C5.27532032,8.89683575 4.25965,7.86832624 4.25965,6.5986884 C4.25965,5.32996479 5.27599789,4.30054106 6.52971948,4.30054106 C7.78344107,4.30054106 8.79978896,5.32905056 8.79978896,6.5986884 C8.79978896,7.86741201 7.78344107,8.89683575 6.52971948,8.89683575 L6.52971948,8.89683575 Z"/>
      <path d="M7.57181485 6.5986884C7.57181485 8.0040895 5.48875338 8.0040895 5.48875338 6.5986884 5.48875338 5.19351587 7.57181485 5.19351587 7.57181485 6.5986884M3.11366128 13.2723437C3.08113815 13.4071927 2.99373223 13.5466129 2.99373223 13.6919756L2.99373223 14.7072288C2.99373223 15.6884268 3.55927337 16.5704309 4.52886926 16.5704309L8.53169897 16.5704309C9.50039144 16.5704309 9.76938485 15.6884268 9.76938485 14.7072288L9.76938485 13.6919756C9.76938485 13.5466129 9.83036573 13.4071927 9.79761674 13.2723437 8.80679047 13.8384811 7.67412721 14.1653185 6.45473559 14.1653185 5.23737667 14.1644043 4.10448755 13.8375668 3.11366128 13.2723437L3.11366128 13.2723437z"/>
      <path d="M9.75967309,14.7026576 C9.65035922,14.7026576 9.58418368,14.6955723 9.57085823,14.6946581 L9.68107551,13.677805 L9.62551516,14.1856602 L9.67678427,13.6768908 C9.73415146,13.6830619 11.0777634,13.7875127 12.4884543,12.326115 C14.3111048,10.4359431 14.5432838,7.38606957 14.5457682,7.35589996 L15.5533078,7.42629572 C15.5444994,7.56640157 15.2983174,10.8770594 13.2118681,13.0403577 C11.7492306,14.5563807 10.2739451,14.7026576 9.75967309,14.7026576 L9.75967309,14.7026576 Z"/>
      <path d="M16.1154611,8.02534536 C16.1154611,9.63416278 13.7315607,9.63416278 13.7315607,8.02534536 C13.7315607,6.41652794 16.1154611,6.41652794 16.1154611,8.02534536"/>
    </g>
    <path d="M47.411795 5.64506186C43.8245386 5.64506186 40.9175578 8.58774182 40.9175578 12.217009 40.9175578 15.8462762 43.8245386 18.7889562 47.411795 18.7889562 50.9990513 18.7889562 53.9060321 15.8471904 53.9060321 12.217009 53.9060321 8.58774182 50.9990513 5.64506186 47.411795 5.64506186L47.411795 5.64506186zM47.411795 14.5151564C46.1573958 14.5151564 45.1417255 13.4866469 45.1417255 12.217009 45.1417255 10.9482854 46.1580734 9.91886167 47.411795 9.91886167 48.6655165 9.91886167 49.6818644 10.9473712 49.6818644 12.217009 49.6818644 13.4857326 48.6655165 14.5151564 47.411795 14.5151564L47.411795 14.5151564zM77.8198425 11.7473976C77.8198425 10.9493367 77.9637642 10.1672488 78.2516121 9.40111034 78.5394599 8.63497188 78.9455953 7.97059615 79.4700304 7.40796322 79.9944655 6.84533029 80.6194408 6.40640338 81.3449751 6.09116933 82.0705094 5.77593527 82.870951 5.61832061 83.7463239 5.61832061 84.172181 5.61832061 84.6078893 5.65622793 85.053462 5.73204372 85.4990347 5.8078595 85.9051701 5.92158148 86.2718804 6.07321305 86.6385906 6.22484462 86.9402349 6.41238611 87.1768221 6.63584316 87.4134094 6.85930022 87.5317013 7.11467587 87.5317013 7.40197779 87.5317013 7.64937667 87.45284 7.87083525 87.2951152 8.06636017 87.1373903 8.26188509 86.9205219 8.35964608 86.6445034 8.35964608 86.565641 8.35964608 86.4788937 8.34767535 86.3842587 8.32373352 85.9741741 8.15614073 85.5719818 8.02246754 85.1776697 7.92270992 84.7833576 7.82295231 84.4008806 7.77307425 84.0302272 7.77307425 83.5333939 7.77307425 83.0779703 7.86884012 82.6639426 8.06037474 82.2499148 8.25190935 81.8950393 8.52324599 81.5993052 8.87439278 81.3035711 9.22553958 81.0748735 9.656486 80.9132055 10.167245 80.7515376 10.6780039 80.6707048 11.1967357 80.6707048 11.7234559 80.6707048 12.1464282 80.7337938 12.6053063 80.8599737 13.1001041 80.9861535 13.5949018 81.1852782 14.0338288 81.4573535 14.416898 81.7294289 14.7999672 82.0724753 15.1092112 82.486503 15.3446391 82.9005307 15.5800671 83.3993281 15.6977793 83.98291 15.6977793 84.3614496 15.6977793 84.7774427 15.643911 85.2309016 15.5361728 85.6843605 15.4284346 86.131898 15.2748102 86.5735276 15.0752949 86.6681625 15.0513531 86.7588529 15.0393824 86.8456016 15.0393824 87.1137338 15.0393824 87.3266592 15.1351482 87.484384 15.3266829 87.6421089 15.5182175 87.7209701 15.7376809 87.7209701 15.9850798 87.7209701 16.2723817 87.5928206 16.5317476 87.3365177 16.7631853 87.0802149 16.9946229 86.7529407 17.1941352 86.3546855 17.361728 85.9564302 17.5293208 85.5148073 17.6590037 85.0298034 17.7507807 84.5447995 17.8425577 84.0775467 17.8884455 83.6280309 17.8884455 82.752658 17.8884455 81.9561594 17.7308309 81.2385114 17.4155968 80.5208634 17.1003628 79.9096887 16.6654261 79.4049692 16.1107738 78.9002497 15.5561214 78.5098866 14.8937408 78.2338681 14.1236121 77.9578496 13.3534833 77.8198425 12.5614198 77.8198425 11.7473976L77.8198425 11.7473976zM89.6018295 11.7713393C89.6018295 11.0371233 89.7280075 10.2889525 89.9803672 9.5268043 90.232727 8.76465615 90.615204 8.09429505 91.1278097 7.5157009 91.6404155 6.93710675 92.2851061 6.4762335 93.061901 6.13306731 93.8386959 5.78990113 94.7515147 5.61832061 95.8003849 5.61832061 96.8492551 5.61832061 97.762074 5.78990113 98.5388689 6.13306731 99.3156637 6.4762335 99.9623259 6.93710675 100.478875 7.5157009 100.995424 8.09429505 101.379872 8.76465615 101.632232 9.5268043 101.884592 10.2889525 102.01077 11.0371233 102.01077 11.7713393 102.01077 12.4975748 101.884592 13.2377651 101.632232 13.9919327 101.379872 14.7461002 100.995424 15.4124711 100.478875 15.9910652 99.9623259 16.5696594 99.3156637 17.0305326 98.5388689 17.3736988 97.762074 17.716865 96.8492551 17.8884455 95.8003849 17.8884455 94.7515147 17.8884455 93.8386959 17.716865 93.061901 17.3736988 92.2851061 17.0305326 91.6404155 16.5696594 91.1278097 15.9910652 90.615204 15.4124711 90.232727 14.7461002 89.9803672 13.9919327 89.7280075 13.2377651 89.6018295 12.4975748 89.6018295 11.7713393L89.6018295 11.7713393zM92.5236676 11.7713393C92.5236676 12.2421953 92.5847851 12.742971 92.7070219 13.2736815 92.8292586 13.804392 93.0224687 14.2752408 93.2866578 14.6862422 93.5508469 15.0972436 93.8899502 15.4264387 94.3039779 15.6738376 94.7180057 15.9212365 95.216803 16.0449341 95.8003849 16.0449341 96.3839669 16.0449341 96.8827642 15.9212365 97.2967919 15.6738376 97.7108196 15.4264387 98.049923 15.0972436 98.3141121 14.6862422 98.5783012 14.2752408 98.7715112 13.804392 98.893748 13.2736815 99.0159847 12.742971 99.0771022 12.2421953 99.0771022 11.7713393 99.0771022 11.3004834 99.0159847 10.7997077 98.893748 10.2689972 98.7715112 9.73828673 98.5783012 9.26544274 98.3141121 8.85045108 98.049923 8.43545941 97.7108196 8.10426911 97.2967919 7.85687023 96.8827642 7.60947135 96.3839669 7.48577377 95.8003849 7.48577377 95.216803 7.48577377 94.7180057 7.60947135 94.3039779 7.85687023 93.8899502 8.10426911 93.5508469 8.43545941 93.2866578 8.85045108 93.0224687 9.26544274 92.8292586 9.73828673 92.7070219 10.2689972 92.5847851 10.7997077 92.5236676 11.3004834 92.5236676 11.7713393L92.5236676 11.7713393zM120.748388 10.167245C120.748388 9.71235026 120.685299 9.31731604 120.559119 8.98213046 120.432939 8.64694489 120.263387 8.36762777 120.050459 8.14417071 119.83753 7.92071366 119.591089 7.75511851 119.311127 7.64738029 119.031166 7.53964207 118.74135 7.48577377 118.441673 7.48577377 118.063134 7.48577377 117.694457 7.54562744 117.335633 7.66533657 116.976809 7.78504571 116.65545 7.97657745 116.371545 8.23993754 116.08764 8.50329764 115.860914 8.84246843 115.69136 9.2574601 115.521806 9.67245176 115.43703 10.1792128 115.43703 10.7777585L115.43703 16.3920888C115.43703 16.6155459 115.397599 16.8110679 115.318737 16.9786607 115.239875 17.1462534 115.135383 17.2879071 115.00526 17.403626 114.875137 17.5193448 114.725301 17.605135 114.555747 17.6609993 114.386193 17.7168636 114.214669 17.7447953 114.041172 17.7447953 113.867675 17.7447953 113.700095 17.7168636 113.538427 17.6609993 113.376759 17.605135 113.230865 17.5193448 113.100742 17.403626 112.970619 17.2879071 112.866128 17.1462534 112.787266 16.9786607 112.708403 16.8110679 112.668973 16.6155459 112.668973 16.3920888L112.668973 10.167245C112.668973 9.71235026 112.603912 9.31731604 112.473789 8.98213046 112.343666 8.64694489 112.172143 8.36762777 111.959215 8.14417071 111.746286 7.92071366 111.499845 7.75511851 111.219883 7.64738029 110.939921 7.53964207 110.650106 7.48577377 110.350429 7.48577377 109.940345 7.48577377 109.553924 7.55360793 109.191157 7.68927828 108.82839 7.82494863 108.512945 8.03044623 108.244813 8.30577724 107.976681 8.58110825 107.763755 8.89833269 107.606031 9.2574601 107.448306 9.6165875 107.369444 10.0754656 107.369444 10.6341083L107.369444 16.4040597C107.369444 16.6275167 107.328042 16.8230387 107.245237 16.9906315 107.162431 17.1582243 107.055969 17.2978829 106.925846 17.4096114 106.795723 17.5213399 106.645886 17.605135 106.476332 17.6609993 106.306778 17.7168636 106.135255 17.7447953 105.961757 17.7447953 105.78826 17.7447953 105.62068 17.7168636 105.459012 17.6609993 105.297344 17.605135 105.151451 17.5213399 105.021328 17.4096114 104.891205 17.2978829 104.786713 17.1582243 104.707851 16.9906315 104.628989 16.8230387 104.589558 16.6275167 104.589558 16.4040597L104.589558 7.07876475C104.589558 6.8632883 104.628989 6.67175656 104.707851 6.50416378 104.786713 6.33657099 104.891205 6.19890755 105.021328 6.09116933 105.151451 5.98343111 105.301287 5.90163109 105.470841 5.84576683 105.640395 5.78990257 105.811919 5.76197085 105.985416 5.76197085 106.151027 5.76197085 106.312693 5.78790744 106.470417 5.8397814 106.628142 5.89165536 106.772064 5.96747001 106.902187 6.06722762 107.03231 6.16698523 107.136801 6.29467306 107.215664 6.45029493 107.294526 6.60591681 107.341843 6.78747294 107.357615 6.99496877 107.357615 7.00294938 107.359587 7.05482256 107.36353 7.15058987 107.367473 7.24635718 107.369444 7.35010354 107.369444 7.46183206L107.369444 7.79103053 107.369444 7.96460791C107.519283 7.66932538 107.732208 7.36606679 108.008227 7.05482304 108.284245 6.74357929 108.597719 6.48221827 108.948657 6.27073213 109.299594 6.05924599 109.678128 5.89764109 110.08427 5.78591256 110.490411 5.67418404 110.902461 5.61832061 111.320432 5.61832061 111.746289 5.61832061 112.160311 5.67218891 112.562509 5.77992713 112.964707 5.88766535 113.333384 6.05326051 113.668549 6.27671756 114.003714 6.50017461 114.301415 6.78348198 114.561661 7.12664816 114.821907 7.46981435 115.026947 7.88080954 115.176785 8.35964608 115.444918 7.84888711 115.742619 7.41993581 116.069898 7.07277932 116.397177 6.72562283 116.742195 6.44431058 117.104962 6.22883414 117.467729 6.0133577 117.844291 5.85773816 118.23466 5.76197085 118.625029 5.66620355 119.017364 5.61832061 119.411676 5.61832061 119.963713 5.61832061 120.48814 5.70810111 120.984974 5.88766482 121.481807 6.06722852 121.919487 6.3425554 122.298026 6.71365371 122.676566 7.08475203 122.976239 7.55759602 123.197054 8.13219986 123.417868 8.70680371 123.528274 9.39312578 123.528274 10.1911867L123.528274 16.4040597C123.528274 16.6275167 123.486872 16.8230387 123.404066 16.9906315 123.321261 17.1582243 123.214798 17.2978829 123.084675 17.4096114 122.954552 17.5213399 122.804716 17.605135 122.635162 17.6609993 122.465607 17.7168636 122.294084 17.7447953 122.120587 17.7447953 121.94709 17.7447953 121.779509 17.7168636 121.617841 17.6609993 121.456173 17.605135 121.31028 17.5213399 121.180157 17.4096114 121.050034 17.2978829 120.945543 17.1582243 120.866681 16.9906315 120.787818 16.8230387 120.748388 16.6275167 120.748388 16.4040597L120.748388 10.167245zM142.951992 10.167245C142.951992 9.71235026 142.888903 9.31731604 142.762723 8.98213046 142.636543 8.64694489 142.466991 8.36762777 142.254063 8.14417071 142.041134 7.92071366 141.794693 7.75511851 141.514731 7.64738029 141.23477 7.53964207 140.944955 7.48577377 140.645277 7.48577377 140.266738 7.48577377 139.898061 7.54562744 139.539237 7.66533657 139.180413 7.78504571 138.859054 7.97657745 138.575149 8.23993754 138.291244 8.50329764 138.064518 8.84246843 137.894964 9.2574601 137.72541 9.67245176 137.640634 10.1792128 137.640634 10.7777585L137.640634 16.3920888C137.640634 16.6155459 137.601203 16.8110679 137.522341 16.9786607 137.443479 17.1462534 137.338987 17.2879071 137.208864 17.403626 137.078741 17.5193448 136.928905 17.605135 136.759351 17.6609993 136.589797 17.7168636 136.418273 17.7447953 136.244776 17.7447953 136.071279 17.7447953 135.903699 17.7168636 135.742031 17.6609993 135.580363 17.605135 135.434469 17.5193448 135.304346 17.403626 135.174223 17.2879071 135.069732 17.1462534 134.99087 16.9786607 134.912007 16.8110679 134.872577 16.6155459 134.872577 16.3920888L134.872577 10.167245C134.872577 9.71235026 134.807516 9.31731604 134.677393 8.98213046 134.54727 8.64694489 134.375747 8.36762777 134.162819 8.14417071 133.94989 7.92071366 133.703449 7.75511851 133.423487 7.64738029 133.143525 7.53964207 132.85371 7.48577377 132.554033 7.48577377 132.143949 7.48577377 131.757529 7.55360793 131.394761 7.68927828 131.031994 7.82494863 130.716549 8.03044623 130.448417 8.30577724 130.180285 8.58110825 129.967359 8.89833269 129.809635 9.2574601 129.65191 9.6165875 129.573049 10.0754656 129.573049 10.6341083L129.573049 16.4040597C129.573049 16.6275167 129.531646 16.8230387 129.448841 16.9906315 129.366035 17.1582243 129.259573 17.2978829 129.12945 17.4096114 128.999327 17.5213399 128.84949 17.605135 128.679936 17.6609993 128.510382 17.7168636 128.338859 17.7447953 128.165361 17.7447953 127.991864 17.7447953 127.824284 17.7168636 127.662616 17.6609993 127.500948 17.605135 127.355055 17.5213399 127.224932 17.4096114 127.094809 17.2978829 126.990318 17.1582243 126.911455 16.9906315 126.832593 16.8230387 126.793162 16.6275167 126.793162 16.4040597L126.793162 7.07876475C126.793162 6.8632883 126.832593 6.67175656 126.911455 6.50416378 126.990318 6.33657099 127.094809 6.19890755 127.224932 6.09116933 127.355055 5.98343111 127.504891 5.90163109 127.674445 5.84576683 127.843999 5.78990257 128.015523 5.76197085 128.18902 5.76197085 128.354631 5.76197085 128.516297 5.78790744 128.674021 5.8397814 128.831746 5.89165536 128.975668 5.96747001 129.105791 6.06722762 129.235914 6.16698523 129.340405 6.29467306 129.419268 6.45029493 129.49813 6.60591681 129.545447 6.78747294 129.561219 6.99496877 129.561219 7.00294938 129.563191 7.05482256 129.567134 7.15058987 129.571077 7.24635718 129.573049 7.35010354 129.573049 7.46183206L129.573049 7.79103053 129.573049 7.96460791C129.722887 7.66932538 129.935812 7.36606679 130.211831 7.05482304 130.487849 6.74357929 130.801323 6.48221827 131.152261 6.27073213 131.503198 6.05924599 131.881732 5.89764109 132.287874 5.78591256 132.694015 5.67418404 133.106065 5.61832061 133.524036 5.61832061 133.949893 5.61832061 134.363915 5.67218891 134.766113 5.77992713 135.168311 5.88766535 135.536988 6.05326051 135.872153 6.27671756 136.207318 6.50017461 136.50502 6.78348198 136.765266 7.12664816 137.025512 7.46981435 137.230551 7.88080954 137.380389 8.35964608 137.648522 7.84888711 137.946223 7.41993581 138.273502 7.07277932 138.600781 6.72562283 138.945799 6.44431058 139.308566 6.22883414 139.671333 6.0133577 140.047896 5.85773816 140.438264 5.76197085 140.828633 5.66620355 141.220968 5.61832061 141.61528 5.61832061 142.167317 5.61832061 142.691744 5.70810111 143.188578 5.88766482 143.685411 6.06722852 144.123091 6.3425554 144.501631 6.71365371 144.88017 7.08475203 145.179843 7.55759602 145.400658 8.13219986 145.621472 8.70680371 145.731878 9.39312578 145.731878 10.1911867L145.731878 16.4040597C145.731878 16.6275167 145.690476 16.8230387 145.60767 16.9906315 145.524865 17.1582243 145.418402 17.2978829 145.288279 17.4096114 145.158156 17.5213399 145.00832 17.605135 144.838766 17.6609993 144.669211 17.7168636 144.497688 17.7447953 144.324191 17.7447953 144.150694 17.7447953 143.983113 17.7168636 143.821446 17.6609993 143.659778 17.605135 143.513884 17.5213399 143.383761 17.4096114 143.253638 17.2978829 143.149147 17.1582243 143.070285 16.9906315 142.991422 16.8230387 142.951992 16.6275167 142.951992 16.4040597L142.951992 10.167245z"/>
  </g>
</svg>
