<svg xmlns="http://www.w3.org/2000/svg" width="16" height="14" viewBox="0 0 16 14">
  <path fill="#FFFFFF" fill-rule="evenodd" d="M7.46321296,15.0162056 C7.31506376,15.0718231 7.2045671,15.2007769 7.18635607,15.34868 C7.16814504,15.4968292 7.2045671,15.662205 7.31506376,15.7736861 L11.1981028,17.8973752 C11.364463,18.0637354 11.6039135,18.0819464 11.7884848,17.9532387 L16.9299139,14.8135054 L13.791165,19.9549346 C13.6624573,20.1395058 13.6806683,20.3981517 13.8470285,20.5453165 L15.989913,24.4283556 C16.0821987,24.5206412 16.1926953,24.5570632 16.3226335,24.5570632 C16.3590556,24.5570632 16.378251,24.5570632 16.4149191,24.5388522 C16.5628222,24.5024302 16.691776,24.4101445 16.7473935,24.2619953 L22.5249662,9.80981948 C22.5990408,9.64345925 22.5613882,9.44067696 22.4144695,9.31172317 C22.2835469,9.20221089 22.0989757,9.14634732 21.9144044,9.22042192 L7.46321296,15.0162056 Z" transform="rotate(45 21.943 -.2)"/>
</svg>
