<svg xmlns="http://www.w3.org/2000/svg" width="28" height="22" viewBox="0 0 28 22">
  <path fill="#FFFFFF" fill-rule="evenodd" d="M15.6088267,20.7350146 C18.7432754,14.8433486 21.6906672,11.5698544 23.4658364,12.1297778 C23.6535167,12.176542 23.7457981,12.2713174 23.841197,12.410363 C24.4965194,13.6717494 23.139734,17.5076611 22.111545,20.5940985 C20.7553832,24.5690557 19.4472325,28.310192 20.4747979,30.3678169 C20.8015238,31.0231393 21.3178006,31.4907813 22.0192637,31.6784616 C22.2530847,31.770743 22.4869057,31.770743 22.674586,31.770743 C24.5912948,31.770743 25.667495,28.9187501 26.695684,26.1590386 C27.163326,24.8976522 27.6771087,23.5870075 28.1908914,22.6984876 C28.4714766,22.1840814 28.7052977,21.9502604 28.8462138,21.9041197 C28.8923545,22.4179024 28.6123928,23.6824064 28.4247124,24.4300102 C27.9570704,26.3928596 27.4894284,28.3126861 28.5662521,29.3402515 C29.9691782,30.6970369 34.3656368,29.9955738 36.1894407,29.6202132 C36.7499876,29.5279318 37.0785841,28.9648908 36.9838086,28.4511081 C36.8909037,27.8911847 36.3284862,27.5619647 35.8147035,27.6573637 C33.2426724,28.1711464 30.4829609,28.3126861 29.9691782,27.9373254 C29.7353572,27.5619647 30.1568585,25.7867956 30.3906795,24.8976522 C30.9044622,22.8394037 31.4668797,20.5011936 29.5963116,19.9412702 C27.2581015,19.2398072 26.0428557,22.3717617 24.8737506,25.4600697 C24.4522493,26.6291748 23.9846072,27.7982798 23.5169652,28.6874232 C22.9570418,29.7156121 22.674586,29.7642469 22.674586,29.7642469 C22.440765,29.7174827 22.3478601,29.6227073 22.2530847,29.437521 C21.5977623,28.1274998 22.9545477,24.2934587 24.0307479,21.2076448 C25.4804382,17.0450072 26.695684,13.4915513 25.667495,11.4794436 C25.3413927,10.8247447 24.7789752,10.4032434 24.0775121,10.1694224 C21.1301203,9.28027899 17.8104854,12.4614918 13.8816688,19.8022246 C11.1687216,24.9001463 9.1129672,30.2780296 9.06433243,30.3241703 C8.87665209,30.837953 9.11047311,31.400994 9.62425582,31.634815 C10.0918978,31.866142 10.7010795,31.5861803 10.8856422,31.0692799 C10.8856422,31.0231393 12.89775,25.7381608 15.6088267,20.7350146 Z" transform="translate(-9 -10)"/>
</svg>
