<svg xmlns="http://www.w3.org/2000/svg" width="45" height="33" viewBox="0 0 45 33">
  <g fill="#02263E" fill-rule="evenodd">
    <path d="M33.4541096,16.3454795 L25.5193151,12.6511644 C25.5439726,11.8084932 25.1124658,10.9824658 24.3203425,10.5565068 C23.9763699,10.3709589 23.6028082,10.2821918 23.2366438,10.2821918 C22.4180137,10.2821918 21.6258904,10.7229452 21.2116438,11.4934932 C20.6124658,12.6104795 21.0334932,14.0023973 22.1486301,14.6021918 C22.490137,14.7846575 22.8563014,14.8715753 23.22,14.8715753 C23.6965068,14.8715753 24.1662329,14.7223973 24.5589041,14.4431507 L31.9561644,17.8477397 L31.9561644,31.0339726 C31.9561644,31.5949315 32.4110959,32.0523288 32.9745205,32.0523288 C33.5354795,32.0523288 33.9910274,31.5973973 33.9910274,31.0339726 L33.9910274,17.2411644 C33.9910274,17.1591781 33.9786986,17.0821233 33.959589,17.0050685 C33.8917808,16.7258219 33.7136301,16.4823288 33.4541096,16.3454795 L33.4541096,16.3454795 Z"/>
    <path d="M23.3334247,0.674383562 C23.0683562,0.551712329 22.7841781,0.49130137 22.5,0.49130137 C22.2158219,0.49130137 21.9316438,0.553561644 21.6665753,0.676849315 L1.28342466,10.205137 C0.609041096,10.520137 0.170753425,11.189589 0.151643836,11.9336301 C0.132534247,12.6776712 0.534452055,13.3693151 1.18972603,13.7206849 L8.22082192,17.4772603 L8.22082192,22.6830822 L22.5,30.1765068 L30.4822603,26.0038356 L30.4822603,18.7939726 L30.2967123,18.7076712 L22.5,22.8729452 L2.11684932,11.9866438 L22.5,2.45589041 L42.8831507,11.9866438 L35.1826027,16.0995205 C35.3632192,16.4465753 35.4643151,16.8343151 35.4643151,17.2411644 L35.4643151,18.1750685 L35.4957534,23.3112329 L38.2839041,21.854589 L38.2839041,16.6703425 L43.810274,13.7182192 C44.4680137,13.3668493 44.8699315,12.6752055 44.8483562,11.9311644 C44.8292466,11.189589 44.3909589,10.520137 43.7165753,10.205137 L23.3334247,0.674383562 Z"/>
  </g>
</svg>
