<svg xmlns="http://www.w3.org/2000/svg" width="13" height="14" viewBox="0 0 13 14">
  <g fill="none" fill-rule="evenodd" transform="translate(1.333 -.4)">
    <path fill="#F8F9FA" d="M5.70949325,1.03109855 C5.37347292,0.696685974 4.83004753,0.696685974 4.49402721,1.03109855 L1.04175884,4.45398027 C0.705738508,4.78839284 0.705738508,5.32938969 1.04175884,5.66380226 C1.37777916,5.99821484 1.92137696,5.99821484 2.25739728,5.66380226 L4.23610704,3.69456002 L4.23610704,10.2060825 C4.23610704,10.6818783 4.62402173,11.0679369 5.10210504,11.0679369 C5.58018835,11.0679369 5.96810304,10.6818783 5.96810304,10.2060825 L5.96810304,3.70811497 L7.9468128,5.66380226 C8.11525398,5.8314375 8.33472749,5.92117469 8.554201,5.92117469 C8.77384692,5.92117469 8.99401006,5.8314375 9.16176162,5.66380226 C9.49847157,5.32938969 9.49847157,4.78839284 9.16245124,4.45398027 L5.70949325,1.03109855 Z"/>
    <path stroke="#F8F9FA" stroke-width="2" d="M0,13.0666667 L10.2666667,13.0666667" stroke-linecap="round"/>
  </g>
</svg>
