<svg xmlns="http://www.w3.org/2000/svg" width="23" height="14" viewBox="0 0 23 14">
  <path fill="#02263E" fill-rule="evenodd" d="M11.5907419,4.26282222 C10.2780546,4.26282222 9.21337249,5.32750438 9.21337249,6.64019163 C9.21337249,7.95287888 10.2780546,9.01756103 11.5907419,9.01756103 C12.903088,9.01756103 13.9677702,7.95287888 13.9677702,6.64019163 C13.9677702,5.32750438 12.903088,4.26282222 11.5907419,4.26282222 L11.5907419,4.26282222 Z M11.5,0 C6.58561004,0 2.29720269,2.67176886 0,6.64019163 C2.29617929,10.6086144 6.58561004,13.2803833 11.5,13.2803833 C16.41439,13.2803833 20.7027973,10.6086144 23,6.64019163 C20.7027973,2.67176886 16.41439,0 11.5,0 L11.5,0 Z M6.94141378,10.5004746 C5.05186734,9.67697487 3.39258699,8.34995995 2.17200617,6.64019163 C3.39258699,4.9304233 5.05186734,3.60477292 6.94141378,2.77990864 C6.04593456,3.81661772 5.50489454,5.16648868 5.50489454,6.64019163 C5.50353001,8.11389457 6.04593456,9.46376554 6.94141378,10.5004746 L6.94141378,10.5004746 Z M11.4174453,10.7269882 C9.16015544,10.7269882 7.33167215,8.89748153 7.33167215,6.64155617 C7.33167215,4.38426626 9.16151998,2.55578298 11.4174453,2.55578298 C13.6733707,2.55578298 15.5028774,4.3856308 15.5028774,6.64155617 C15.5028774,8.89748153 13.6733707,10.7269882 11.4174453,10.7269882 L11.4174453,10.7269882 Z M15.7948889,10.6113435 C16.7476788,9.56098899 17.3299961,8.16745276 17.3299961,6.64019163 C17.3299961,5.1129305 16.7476788,3.71905313 15.7948889,2.66903978 C17.7935985,3.48196434 19.5514669,4.85196227 20.8279938,6.64019163 C19.5514669,8.42842099 17.7935985,9.79841891 15.7948889,10.6113435 L15.7948889,10.6113435 Z"/>
</svg>
